<svg id="Layer_1" data-name="Layer 1" xmlns="http://www.w3.org/2000/svg" viewBox="0 0 373.23 402.12"><defs><style>.cls-1,.cls-2{fill:#231f20;}.cls-2{font-size:156.04px;font-family:Garamond-Bold, Garamond;font-weight:700;}</style></defs><title>svg paulogo</title><path class="cls-1" d="M117.69,64.62c4.3,45.81,7.88,91.69,14.28,137.29,6.44,45.87,13.29,91.6,21.85,137.15,2.41,12.85,5,25.75,8.18,38.44,3.12,12.27,6.11,25.84,13.32,36.49l8.74-6.74c-2.8-2.53-4.84-6-6.63-9.23-1.32-2.42-5.09-.77-4.4,1.85a35.07,35.07,0,0,1,1.53,11.31c-.46,6.18,10,7.71,10.93,1.48,1.8-11.54-.16-23.56-2.15-34.94s-4.23-22.57-6.51-33.82c-4.55-22.45-9.6-44.8-14.16-67.25-9.18-45.12-18.61-90.26-26.73-135.58C131.35,115.4,126.4,89.76,122.42,64c-.41-2.66-5-2.07-4.73.64Z" transform="translate(-27.33 -14.52)"/><path class="cls-1" d="M45.84,148.38c-11-13-12.51-30.64-8.23-46.7C42,85.2,52.05,72,64.81,61,90.55,38.82,129,21.94,163.42,28.35c15.74,2.92,30.84,10.31,41.16,22.8,8.56,10.36,12,23.44,11.21,36.73-.77,12.66-6.74,25.12-14,35.31A78,78,0,0,1,188.54,137c.28-.23-3,2.31-2.13,1.68-1.38,1-2.8,2-4.24,2.92a73.14,73.14,0,0,1-9.86,5.24c-15.19,6.45-32.29,7.64-48.46,5.59a144.9,144.9,0,0,1-27.1-6c-8.46-2.77-17.66-5.09-25.5-9.31-4.48-2.41-9,3.3-5.43,7,6.69,7.06,12.91,14,21.36,19.09a109.28,109.28,0,0,0,26.53,11.56c18.64,5.18,39.91,5.11,58.3-1.11,17.59-5.95,32.43-16.24,43.15-31.47A89.45,89.45,0,0,0,231,95.46c.76-15.49-2.17-31.18-10.31-44.54-9.43-15.47-25-26.26-42.06-31.86C139.29,6.12,95.3,22.59,63.83,46.77,47.56,59.27,32.54,76.94,28.56,97.64c-3.65,19,.78,39.52,14.19,53.83,2,2.08,4.88-1,3.09-3.09Z" transform="translate(-27.33 -14.52)"/><text class="cls-2" transform="translate(171.71 253.77)">au.</text></svg>